<?xml version="1.0" encoding="UTF-8"?>
<svg width="870px" height="476px" viewBox="0 0 870 476" version="1.1" xmlns="http://www.w3.org/2000/svg" xmlns:xlink="http://www.w3.org/1999/xlink">
    <!-- Generator: Sketch 64 (93537) - https://sketch.com -->
    <title>devops-circle</title>
    <desc>Created with Sketch.</desc>
    <g id="Page-1" stroke="none" stroke-width="1" fill="none" fill-rule="evenodd">
        <g id="devops-circle" fill-rule="nonzero">
            <path d="M851.1,145.3 C839.2,117 821.8,91.3 800,69.7 C755.2,25.1 694.5,0 631.2,0.0997023364 C600.5,0.0997023364 570.1,5.4 541.2,15.6 C513,25.6 484.9,40.7 457.6,60.5 C450.2,65.9 442.9,71.5 435.4,77.7 C428,71.5 420.6,65.9 413.3,60.5 C386,40.7 357.9,25.6 329.7,15.6 C300.8,5.4 270.4,0.0997023364 239.7,0.0997023364 C143.9,2.84217094e-14 57.3,57.2 19.7,145.3 C-5.4,204.6 -5.4,271.5 19.7,330.8 C57.3,418.9 143.9,476.1 239.7,476.000523 C270.3,476.000523 300.7,470.7 329.6,460.5 C357.8,450.5 386,435.4 413.2,415.6 C420.6,410.2 428,404.5 435.4,398.3 C442.9,404.5 450.2,410.2 457.6,415.6 C484.9,435.4 513,450.5 541.2,460.5 C570.1,470.7 600.5,476.000523 631.2,476.000523 C727,476.2 813.6,419 851.1,330.8 C876.3,271.5 876.3,204.6 851.1,145.3 Z M239.7,362.4 C200.8,362.4 116.1,276.9 116.1,238 C116.1,199.1 195.6,115.3 234.5,115.3 C273.4,115.3 435.4,199.1 435.4,238 C435.4,276.9 278.6,362.4 239.7,362.4 Z M633.9,362.4 C595,362.4 447.6,276.9 447.6,238 C447.6,199.1 595,115.3 633.9,115.3 C672.8,115.3 751.8,199.1 751.8,238 C751.8,276.9 672.8,362.4 633.9,362.4 Z" id="Transparency_Loop_02" fill="#3BABC8" opacity="0.08"></path>
            <path d="M808.7,153.3 C778.4,82.2 708.5,36.1 631.2,36.1998376 C580.5,36.1998376 532.5,53.1 484.7,87.8 C468.8,99.3 453,112.7 435.4,129.4 C419.9,114.4 403.5,100.6 386.2,87.8 C338.3,53.1 290.4,36.1998376 239.7,36.1998376 C162.4,36.1 92.5,82.2 62.2,153.3 C41.9,201.1 41.9,255 62.2,302.8 C92.5,373.9 162.4,420 239.7,419.900162 C290.4,419.900162 338.3,403 386.1,368.3 C402,356.8 417.8,343.4 435.4,326.6 C450.9,341.6 467.4,355.5 484.7,368.3 C532.6,403 580.5,419.900162 631.2,419.900162 C708.5,419.900162 778.3,373.8 808.7,302.8 C829,255 829,201.1 808.7,153.3 Z M239.7,352.4 C200.8,352.4 116.1,266.9 116.1,228 C116.1,189.1 195.6,105.3 234.5,105.3 C273.4,105.3 435.4,189.1 435.4,228 C435.4,266.9 278.6,352.4 239.7,352.4 Z M633.9,352.4 C527,352.4 446.6,293 446.6,228 C446.6,172.8 533.3,105.3 633.9,105.3 C672.8,105.3 762.2,127.6 752.6,228 C742.8,330.2 672.8,352.4 633.9,352.4 Z" id="Transparency_Loop_01" fill="#3BABC8" opacity="0.1"></path>
            <g id="OPS" transform="translate(549.000000, 214.000000)" fill="#D0D0D2">
                <path d="M46.5,25 C46.5,33 44.5,39.2 40.5,43.5 C36.5,47.8 30.8,50 23.3,50 C15.8,50 10.2,47.9 6.2,43.5 C2.2,39.1 0.2,33 0.2,24.9 C0.2,16.8 2.2,10.7 6.2,6.4 C10.2,2.1 16,0 23.4,0 C30.8,0 36.6,2.2 40.5,6.5 C44.4,10.8 46.5,17 46.5,25 Z M11,25 C11,30.4 12.1,34.5 14.1,37.3 C16.1,40.1 19.3,41.4 23.3,41.4 C31.6,41.4 35.7,35.9 35.7,25 C35.7,14.1 31.6,8.6 23.4,8.6 C19.3,8.6 16.2,10 14.1,12.7 C12,15.4 11,19.6 11,25 Z" id="Shape"></path>
                <path d="M90.1,15.9 C90.1,21.2 88.4,25.2 85.2,27.9 C82,30.6 77.2,32.1 71.2,32.1 L66.8,32.1 L66.8,49.3 L56.5,49.3 L56.5,0.8 L72,0.8 C77.9,0.8 82.4,2.1 85.5,4.6 C88.6,7.1 90.1,10.9 90.1,15.9 Z M66.8,23.6 L70.2,23.6 C73.4,23.6 75.7,23 77.3,21.8 C78.9,20.5 79.8,18.4 79.7,16.3 C79.7,13.9 79,12.1 77.7,11 C76.4,9.9 74.3,9.2 71.5,9.2 L66.8,9.2 L66.8,23.6 L66.8,23.6 Z" id="Shape"></path>
                <path d="M127.9,35.9 C128.1,39.9 126.3,43.8 123.1,46.2 C120,48.8 115.6,50 110,50 C105.2,50.1 100.5,49.1 96.2,47.1 L96.2,37.5 C98.9,38.7 101.7,39.8 104.5,40.6 C106.6,41.2 108.7,41.5 110.8,41.5 C112.6,41.6 114.4,41.2 116,40.2 C117.2,39.3 117.9,37.9 117.8,36.4 C117.8,35.5 117.5,34.6 117,33.8 C116.3,33 115.5,32.3 114.6,31.7 C112.6,30.5 110.5,29.4 108.3,28.4 C105.9,27.3 103.7,26 101.7,24.4 C100.2,23.1 99,21.6 98.1,19.9 C97.2,18 96.7,16 96.8,13.9 C96.8,9.6 98.2,6.3 101.2,3.8 C104.2,1.3 108.1,0.1 113.2,0.1 C115.6,0.1 118.1,0.4 120.4,1 C122.9,1.6 125.3,2.5 127.6,3.5 L124.3,11.5 C122.2,10.6 120.1,9.9 117.9,9.3 C116.3,8.9 114.6,8.7 112.9,8.7 C111.3,8.6 109.7,9 108.4,10 C107.4,10.9 106.8,12.2 106.9,13.6 C106.9,14.4 107.1,15.3 107.5,16 C108,16.8 108.7,17.4 109.5,17.9 C111.6,19.2 113.7,20.3 116,21.3 C120.6,23.5 123.7,25.7 125.3,27.8 C127.1,30.1 128,33 127.9,35.9 Z" id="Path"></path>
            </g>
            <g id="DEV" transform="translate(197.000000, 214.000000)" fill="#D0D0D2">
                <path d="M40.5,24.6 C40.5,32.6 38.2,38.7 33.7,43 C29.2,47.3 22.6,49.3 14,49.3 L0.2,49.3 L0.2,0.8 L15.5,0.8 C23.4,0.8 29.6,2.9 33.9,7.1 C38.2,11.3 40.5,17.1 40.5,24.6 Z M29.8,24.9 C29.8,14.5 25.2,9.2 16,9.2 L10.5,9.2 L10.5,40.8 L15,40.8 C24.9,40.8 29.8,35.5 29.8,24.9 Z" id="Shape"></path>
                <polygon id="Path" points="78.5 49.3 50.6 49.3 50.6 0.8 78.5 0.8 78.5 9.2 60.9 9.2 60.9 19.9 77.3 19.9 77.3 28.3 60.9 28.3 60.9 40.8 78.5 40.8"></polygon>
                <path d="M116.4,0.8 L126.7,0.8 L110.2,49.3 L99,49.3 L82.6,0.8 L92.9,0.8 L102.1,29.7 C102.6,31.4 103.1,33.4 103.7,35.7 C104.3,38 104.5,39.5 104.7,40.4 C105.2,36.8 106.1,33.2 107.2,29.7 L116.4,0.8 Z" id="Path"></path>
            </g>
            <g id="plan-top" transform="translate(239.000000, 90.000000)">
                <path d="M178.7,165.7 C122.5,106.1 69.5,49.8 0.7,49.8 L0.7,0.8 C90.6,0.8 153.5,67.6 214.3,132.1 L178.7,165.7 Z" id="Path" fill="#46C6B3"></path>
                <path d="M77.9,43.3 C77.2,45 75.8,46.3 74,46.8 C72,47.2 69.9,46.8 68.1,45.8 L66.5,45.1 L63.4,51.4 L59.7,49.5 L68.3,31.8 L74,34.5 C75.8,35.3 77.3,36.6 78.2,38.3 C78.9,39.9 78.8,41.8 77.9,43.3 Z M68,42 L69.2,42.6 C70.1,43.1 71.2,43.2 72.2,43.1 C73,42.9 73.7,42.4 74,41.6 C74.4,40.9 74.5,40.1 74.2,39.3 C73.8,38.5 73.1,37.8 72.3,37.5 L70.6,36.7 L68,42 Z" id="Shape" fill="#FFFFFF"></path>
                <polygon id="Path" fill="#FFFFFF" points="74.9 57.2 84.9 40.2 88.5 42.3 80.2 56.3 87.1 60.4 85.4 63.4"></polygon>
                <path d="M97.9,71.9 L99.4,67.2 L93.5,63.1 L89.6,66.2 L85.9,63.6 L102.9,51.3 L107.1,54.2 L101.6,74.5 L97.9,71.9 Z M100.6,63.8 C101.9,59.5 102.7,57.1 102.8,56.5 L103.3,55.3 L96.3,60.8 L100.6,63.8 Z" id="Shape" fill="#FFFFFF"></path>
                <path d="M117,86.7 L112.9,83.4 L115.5,66.4 L115.4,66.4 C113.9,68.6 112.8,70.1 112.1,71 L106.3,78.2 L103.3,75.9 L115.6,60.5 L119.8,63.8 L117.3,80.7 L117.3,80.7 C118.8,78.6 119.9,77.2 120.6,76.3 L126.4,69 L129.3,71.4 L117,86.7 Z" id="Path" fill="#FFFFFF"></path>
            </g>
            <g id="loop-monitor" transform="translate(417.000000, 222.000000)">
                <path d="M214.2,164.9 C141.5,164.9 86.2,120.1 41.7,76.2 C27.8,62.4 14,47.8 0.7,33.7 L36.3,0.1 C49.3,13.9 62.8,28.2 76.1,41.3 C115.4,80.1 159.3,115.9 214.2,115.9 L214.2,164.9 Z" id="Path" fill="#46C6B3"></path>
                <path d="M54.1,70.1 L61.4,55.7 L61.3,55.7 C60,57.3 58.6,58.9 57.1,60.4 L50.7,67 L48.1,64.4 L61.8,50.2 L65.9,54.2 L58.7,68.3 L58.8,68.3 L72.9,60.9 L77,64.8 L63.2,79 L60.4,76.3 L66.9,69.6 L68,68.5 L71.3,65.3 L71.2,65.3 L56.8,72.9 L54.1,70.1 Z" id="Path" fill="#FFFFFF"></path>
                <path d="M86.7,86.8 C84.6,89.2 82.3,90.6 79.9,90.8 C77.5,91 75.2,90.1 72.9,88.1 C70.6,86.1 69.5,83.9 69.5,81.5 C69.5,79.1 70.5,76.7 72.7,74.3 C74.9,71.9 77.2,70.5 79.5,70.3 C81.8,70.1 84.2,70.9 86.5,73 C88.8,75.1 89.9,77.2 89.9,79.5 C89.9,81.8 88.9,84.3 86.7,86.8 Z M76,77.2 C74.7,78.4 73.9,80 73.6,81.8 C73.5,83.2 74.1,84.6 75.3,85.5 C77.8,87.7 80.5,87.2 83.4,83.9 C86.3,80.6 86.6,77.8 84.2,75.6 C83.2,74.5 81.7,74.1 80.2,74.3 C78.5,74.8 77,75.8 76,77.2 Z" id="Shape" fill="#FFFFFF"></path>
                <path d="M97.5,108.2 L93.3,104.8 L95.9,87.8 L95.8,87.8 C94.3,90 93.2,91.5 92.5,92.4 L86.7,99.7 L83.8,97.4 L96.1,81.9 L100.2,85.2 L97.7,102 L97.8,102 L101,97.6 L106.8,90.3 L109.8,92.6 L97.5,108.2 Z" id="Path" fill="#FFFFFF"></path>
                <polygon id="Path" fill="#FFFFFF" points="102 111.4 113.5 95.3 116.9 97.8 105.4 113.8"></polygon>
                <polygon id="Path" fill="#FFFFFF" points="116.4 121.2 112.8 118.9 121.7 105.2 117.2 102.3 119.1 99.4 131.6 107.5 129.7 110.4 125.2 107.5"></polygon>
                <path d="M144.8,126 C143.2,128.8 141.3,130.7 139.1,131.4 C136.9,132.1 134.4,131.9 131.7,130.5 C129,129.1 127.4,127.2 126.8,124.9 C126.2,122.6 126.7,119.9 128.2,117 C129.7,114.1 131.7,112.3 133.9,111.6 C136.4,110.8 139.1,111.2 141.3,112.6 C143.7,113.7 145.5,115.7 146.2,118.2 C146.8,120.5 146.3,123.1 144.8,126 Z M132.1,119.1 C131.1,120.6 130.7,122.3 130.8,124.1 C131.1,125.5 132.1,126.8 133.4,127.4 C136.3,129 138.8,127.8 140.9,123.9 C143,120 142.6,117.2 139.7,115.6 C138.4,114.9 136.9,114.8 135.6,115.3 C134.1,116.2 132.8,117.5 132.1,119.1 Z" id="Shape" fill="#FFFFFF"></path>
                <path d="M151.8,131.4 L148.9,138.4 L145,136.9 L152.5,118.6 L157.8,120.7 C159.8,121.3 161.5,122.6 162.8,124.3 C163.6,125.8 163.6,127.6 162.9,129.2 C162.5,130.2 161.8,131.1 160.8,131.7 C159.8,132.3 158.7,132.6 157.5,132.6 C158.6,137.9 159.3,141.3 159.7,142.8 L155.3,141.1 L153.8,132.3 L151.8,131.4 Z M153.1,128.3 L154.3,128.8 C155.2,129.2 156.3,129.4 157.3,129.3 C158.1,129.1 158.7,128.5 158.9,127.7 C159.3,127 159.2,126.2 158.8,125.5 C158.1,124.7 157.2,124.1 156.2,123.8 L155.1,123.3 L153.1,128.3 Z" id="Shape" fill="#FFFFFF"></path>
            </g>
            <g id="loop-operate" transform="translate(606.000000, 212.000000)">
                <path d="M25.2,174.9 C11.7,174.9 0.7,163.9 0.7,150.4 C0.7,136.9 11.7,125.9 25.2,125.9 C79.9,125.8 124.2,81.6 124.3,26.9 C123.4,13.4 133.7,1.7 147.2,0.9 C160.7,-1.11022302e-16 172.4,10.3 173.2,23.8 C173.3,24.8 173.3,25.9 173.2,26.9 C173.2,108.5 106.8,174.9 25.2,174.9 Z" id="Path" fill="#35AFA0"></path>
                <path d="M67.8,145 C68.7,147.6 68.6,150.5 67.4,153 C66.4,155.1 64.3,156.5 61.4,157.3 C59,158.2 56.3,158 54,156.7 C51.8,155.1 50.2,152.7 49.7,150 C48.8,146.9 48.9,144.2 50,142.1 C51.1,140 53.1,138.6 56,137.7 C58.5,136.9 61.2,137.1 63.5,138.4 C65.5,139.7 66.9,141.9 67.8,145 Z M53.9,148.9 C54.5,151 55.3,152.5 56.4,153.3 C57.6,154.2 59.1,154.5 60.5,154 C63.7,153.1 64.7,150.5 63.6,146.2 C62.5,141.9 60.2,140.2 57,141.1 C55.6,141.4 54.4,142.3 53.8,143.7 C53.3,145.4 53.3,147.2 53.9,148.9 L53.9,148.9 Z" id="Shape" fill="#FFFFFF"></path>
                <path d="M82.8,134.2 C83.6,135.9 83.7,137.8 83,139.5 C82.3,141 80.8,142.3 78.5,143.4 L76.9,144.1 L79.9,150.5 L76.1,152.2 L67.8,134.3 L73.5,131.7 C75.2,130.8 77.2,130.5 79.1,130.8 C80.8,131.3 82.2,132.5 82.8,134.2 Z M75.5,141 L76.7,140.4 C77.7,140.1 78.5,139.4 79,138.5 C79.4,137.8 79.4,136.8 79,136.1 C78.7,135.3 78.1,134.7 77.3,134.5 C76.4,134.3 75.6,134.4 74.8,134.9 L73,135.7 L75.5,141 Z" id="Shape" fill="#FFFFFF"></path>
                <polygon id="Path" fill="#FFFFFF" points="102.7 137.7 93.1 143.8 82.5 127.2 92.1 121.1 93.9 124 87.9 127.8 90.2 131.5 95.8 127.9 97.7 130.8 92 134.4 94.8 138.7 100.8 134.8"></polygon>
                <path d="M105.7,125.8 L110.6,131.6 L107.4,134.3 L94.6,119.2 L99,115.5 C100.5,114 102.4,113.1 104.5,112.8 C107.4,112.9 109.8,115 110.1,117.9 C110.2,119.1 110,120.3 109.4,121.3 L119.4,124.1 L115.9,127.1 L107.4,124.4 L105.7,125.8 Z M103.5,123.2 L104.5,122.3 C105.3,121.7 106,120.9 106.3,119.9 C106.5,119.1 106.3,118.3 105.7,117.7 C105.2,117.1 104.5,116.7 103.7,116.8 C102.7,117.1 101.8,117.6 101,118.3 L100,119.2 L103.5,123.2 Z" id="Shape" fill="#FFFFFF"></path>
                <path d="M130.3,111.8 L125.9,109.8 L121.1,115.3 L123.7,119.4 L120.7,122.8 L110.4,104.5 L113.8,100.7 L133.3,108.5 L130.3,111.8 Z M122.6,108.3 L115.6,105.2 L114.4,104.6 L119.2,112.1 L122.6,108.3 Z" id="Shape" fill="#FFFFFF"></path>
                <polygon id="Path" fill="#FFFFFF" points="139.8 98.5 137.5 102 123.9 93.2 120.9 97.7 118 95.8 126.2 83.3 129.1 85.2 126.2 89.7"></polygon>
                <polygon id="Path" fill="#FFFFFF" points="149.8 79.6 144.9 89.9 127 81.4 132 71.1 135.1 72.6 132 79.1 135.9 81 138.7 74.9 141.8 76.4 139 82.4 143.5 84.6 146.6 78.2"></polygon>
            </g>
            <g id="loop-deploy" transform="translate(606.000000, 90.000000)">
                <path d="M148.7,173.4 C135.2,173.3 124.3,162.4 124.3,148.9 C124.2,94.2 79.9,49.9 25.2,49.8 C11.7,49.8 0.7,38.8 0.7,25.3 C0.7,11.8 11.7,0.8 25.2,0.8 C106.8,0.8 173.2,67.3 173.2,148.9 C173.2,162.4 162.2,173.4 148.7,173.4 Z" id="Path" fill="#20968B"></path>
                <path d="M96.4,49.4 C94.7,52.1 92.6,53.8 90.1,54.3 C87.6,54.8 84.9,54.1 81.9,52.3 L77.1,49.3 L87.5,32.5 L92.8,35.8 C95.5,37.5 97.2,39.5 97.8,41.9 C98.4,44.3 98,46.8 96.4,49.4 Z M92.6,47.2 C94.8,43.6 94.3,40.8 91.2,38.8 L89.3,37.6 L82.5,48.6 L84,49.5 C87.5,51.7 90.3,50.9 92.6,47.2 L92.6,47.2 Z" id="Shape" fill="#FFFFFF"></path>
                <polygon id="Path" fill="#FFFFFF" points="102.4 67.5 93.7 60.1 106.5 45.1 115.2 52.5 112.9 55.1 107.5 50.4 104.6 53.7 109.7 58.1 107.5 60.7 102.4 56.3 99.1 60.2 104.6 64.9"></polygon>
                <path d="M124.1,71.1 C122.8,72.4 120.9,73.1 119.1,72.9 C117.1,72.5 115.3,71.3 114.1,69.7 L112.9,68.4 L107.6,73.1 L104.8,69.9 L119.6,56.8 L123.8,61.5 C125.2,62.9 126.1,64.7 126.3,66.7 C126.3,68.4 125.5,70 124.1,71.1 Z M115.4,66.1 L116.3,67.2 C116.9,68 117.8,68.5 118.8,68.8 C119.7,68.9 120.5,68.6 121.1,68 C121.8,67.6 122.2,66.8 122.2,66 C122.1,65.1 121.7,64.3 121.1,63.7 L119.8,62.2 L115.4,66.1 Z" id="Shape" fill="#FFFFFF"></path>
                <polygon id="Path" fill="#FFFFFF" points="115.6 82.6 132.1 71.7 134.4 75.2 120.8 84.2 125.3 90.9 122.4 92.8"></polygon>
                <path d="M140.2,107.3 C137.2,108.7 134.6,109 132.4,108.2 C129.9,107.3 128,105.4 127.1,103 C125.9,100.7 125.7,98 126.6,95.5 C127.5,93.3 129.5,91.6 132.5,90.2 C135.5,88.8 138.1,88.6 140.4,89.3 C142.8,90.3 144.7,92.2 145.6,94.6 C146.9,97.4 147,99.9 146.1,102 C145.2,104.1 143.2,106 140.2,107.3 Z M134.3,94.2 C132.7,94.8 131.2,95.9 130.3,97.4 C129.6,98.7 129.6,100.2 130.3,101.5 C131.7,104.6 134.4,105.2 138.4,103.3 C142.5,101.5 143.8,99.1 142.4,96.1 C141.9,94.7 140.7,93.6 139.3,93.3 C137.6,93.1 135.8,93.4 134.3,94.2 L134.3,94.2 Z" id="Shape" fill="#FFFFFF"></path>
                <polygon id="Path" fill="#FFFFFF" points="144.8 117.6 153.7 119.6 154.9 123.9 141.6 120.7 134.1 122.6 133.1 118.6 140.4 116.7 150.5 107.2 151.7 111.6"></polygon>
            </g>
            <g id="loop-release" transform="translate(400.000000, 90.000000)">
                <path d="M32.8,187.2 L0.9,149.7 L17.6,132.1 C78.4,67.6 141.3,0.8 231.2,0.8 C244.7,0.8 255.7,11.8 255.7,25.3 C255.7,38.8 244.7,49.8 231.2,49.8 C162.4,49.8 109.4,106.1 53.2,165.7 L32.8,187.2 Z" id="Path" fill="#196659"></path>
                <path d="M98.5,91 L103.5,96.7 L100.4,99.5 L87.3,84.7 L91.6,80.9 C93.1,79.4 94.9,78.4 97,78 C98.7,77.9 100.4,78.7 101.4,80.1 C102.2,80.9 102.6,81.9 102.7,83 C102.9,84.2 102.7,85.4 102.1,86.4 L112.2,89 L108.7,92.1 L100.2,89.5 L98.5,91 Z M96.2,88.5 L97.2,87.6 C98,87 98.7,86.1 99,85.1 C99.1,84.3 98.9,83.5 98.3,83 C97.8,82.4 97.1,82 96.3,82.1 C95.3,82.4 94.3,82.9 93.6,83.7 L92.7,84.5 L96.2,88.5 Z" id="Shape" fill="#FFFFFF"></path>
                <polygon id="Path" fill="#FFFFFF" points="122.8 80.3 114 87.5 101.4 72.3 110.2 65.1 112.4 67.7 106.9 72.3 109.6 75.6 114.8 71.4 117 74 111.8 78.3 115 82.2 120.6 77.7"></polygon>
                <polygon id="Path" fill="#FFFFFF" points="125.8 78 114 62.1 117.4 59.6 127.1 72.7 133.6 67.9 135.6 70.7"></polygon>
                <polygon id="Path" fill="#FFFFFF" points="147.7 62.6 138.2 68.9 127.4 52.4 136.9 46.1 138.8 49 132.8 53 135.1 56.6 140.7 52.9 142.6 55.8 137 59.4 139.8 63.7 145.8 59.7"></polygon>
                <path d="M161.5,54.8 L157.9,51.3 L151.7,54.8 L152.7,59.6 L148.7,61.8 L145.2,41.1 L149.7,38.6 L165.4,52.6 L161.5,54.8 Z M155.4,48.8 L149.9,43.5 L148.9,42.6 C149.2,43.7 149.9,46.6 150.9,51.3 L155.4,48.8 Z" id="Shape" fill="#FFFFFF"></path>
                <path d="M175.8,42.1 C176.5,43.6 176.5,45.3 175.7,46.7 C174.8,48.4 173.2,49.7 171.4,50.3 C169.7,51.1 167.8,51.5 165.9,51.5 L164.3,47.9 L167.9,47.7 L170.3,47 C171,46.8 171.6,46.3 172.1,45.7 C172.4,45.1 172.4,44.5 172.1,43.9 C171.9,43.6 171.7,43.3 171.4,43.1 C171,42.9 170.6,42.8 170.2,42.7 L167.3,42.5 C166.2,42.6 165.1,42.4 164.1,42.1 C163.4,41.9 162.7,41.5 162.1,41 C161.4,40.5 160.9,39.8 160.6,39 C159.9,37.6 159.9,36 160.5,34.6 C161.3,33 162.7,31.8 164.4,31.2 C165.3,30.8 166.3,30.5 167.3,30.3 L170.4,30.1 L170.4,33.6 L167.7,33.8 L165.7,34.4 C165.1,34.7 164.6,35.1 164.3,35.7 C164,36.2 164,36.8 164.3,37.3 C164.4,37.6 164.6,37.9 164.9,38 C165.2,38.3 165.6,38.4 166,38.4 C167,38.6 168,38.6 169,38.6 C170.5,38.6 172.1,38.9 173.5,39.5 C174.5,40.1 175.3,41 175.8,42.1 Z" id="Path" fill="#FFFFFF"></path>
                <polygon id="Path" fill="#FFFFFF" points="191.7 42.4 181 46 174.7 27.3 185.4 23.7 186.5 26.9 179.7 29.2 181.1 33.3 187.4 31.2 188.5 34.4 182.2 36.6 183.8 41.4 190.6 39.1"></polygon>
            </g>
            <g id="loop-test" transform="translate(215.000000, 232.000000)">
                <path d="M24.7,154.9 C11.2,154.9 0.3,144.1 0.199358215,130.6 C0.1,117 11.7,106 25.3,105.9 C86.9,105.6 135.9,60.1 185.9,7.7 C195.2,-2 210.5,-2.4 220.3,6.8 L220.4,6.8 C230.2,16 230.7,31.5 221.5,41.3 C221.4,41.4 221.4,41.4 221.3,41.5 C165.5,100 106.2,154.9 24.7,154.9 Z" id="Path" fill="#1A7A6F"></path>
                <polygon id="Path" fill="#FFFFFF" points="128.3 107.4 124.8 109.7 115.8 96.1 111.4 99.1 109.4 96.2 121.9 88 123.8 90.9 119.3 93.8"></polygon>
                <polygon id="Path" fill="#FFFFFF" points="144.9 95.4 135.8 102.2 124 86.4 133.1 79.6 135.1 82.3 129.4 86.6 132 90.1 137.3 86.1 139.4 88.8 134 92.8 137.1 96.9 142.8 92.6"></polygon>
                <path d="M154.1,80.9 C155.2,82.1 155.6,83.8 155.2,85.4 C154.7,87.2 153.6,88.8 152.1,89.9 C150.6,91.2 148.9,92.1 147,92.6 L144.5,89.6 L148,88.4 L150.1,87.1 C150.7,86.7 151.2,86 151.4,85.3 C151.6,84.7 151.5,84 151,83.6 C150.8,83.3 150.5,83.1 150.1,83 C149.7,82.9 149.2,82.9 148.8,83 C147.8,83.1 146.9,83.3 146,83.6 C145,83.9 143.9,84 142.9,84 C142.1,84 141.3,83.8 140.6,83.5 C139.8,83.2 139.1,82.6 138.6,82 C137.6,80.8 137.1,79.2 137.4,77.7 C137.8,76 138.8,74.4 140.2,73.4 C141,72.8 141.8,72.2 142.7,71.8 C143.7,71.4 144.7,71.1 145.7,70.8 L146.7,74.1 L144.1,75.1 C143.5,75.4 142.9,75.8 142.3,76.2 C141.8,76.6 141.4,77.2 141.3,77.8 C141.2,78.3 141.3,78.9 141.7,79.3 C141.9,79.6 142.2,79.8 142.5,79.9 L143.7,79.9 L146.6,79.3 C148.1,78.9 149.7,78.7 151.2,78.9 C152.3,79.3 153.4,80 154.1,80.9 Z" id="Path" fill="#FFFFFF"></path>
                <polygon id="Path" fill="#FFFFFF" points="166.3 77.4 163.2 80.2 152.4 68 148.4 71.6 146.1 69 157.3 59.1 159.6 61.7 155.5 65.2"></polygon>
            </g>
            <g id="loop-build" transform="translate(91.000000, 214.000000)">
                <path d="M148.7,172.9 C67,172.9 0.6,106.5 0.6,24.9 C0.6,11.4 11.6,0.4 25.1,0.4 C38.6,0.4 49.6,11.4 49.6,24.9 C49.7,79.6 94,123.9 148.7,123.9 C162.2,123.9 173.2,134.9 173.2,148.4 C173.2,161.9 162.2,172.9 148.7,172.9 Z" id="Path" fill="#20968B"></path>
                <path d="M52.5,89 L56.2,93.9 C57.6,95.5 58.6,97.4 59,99.5 C59.1,101 58.4,102.5 57.1,103.3 C56.3,103.9 55.3,104.3 54.3,104.4 C53.4,104.4 52.5,104.1 51.8,103.4 L51.7,103.4 C52.3,104.3 52.4,105.5 52.1,106.5 C51.8,107.5 51.1,108.4 50.2,109 C49,110.1 47.3,110.5 45.7,110 C43.9,109.5 42.3,108.3 41.3,106.7 L36.8,100.8 L52.5,89 Z M46.2,99.1 L42.1,102.2 L43.7,104.4 C44.2,105.1 44.9,105.7 45.8,106 C46.6,106.2 47.4,106 47.9,105.4 C49.2,104.4 49.2,103 47.7,101.1 L46.2,99.1 Z M48.8,97.1 L50.3,99 C51,99.9 51.6,100.5 52.2,100.6 C52.8,100.8 53.5,100.7 54,100.2 C54.5,99.9 54.9,99.2 54.8,98.6 C54.7,97.7 54.3,96.8 53.6,96.2 L52.3,94.4 L48.8,97.1 Z" id="Shape" fill="#FFFFFF"></path>
                <path d="M74.8,113.9 L66,123.1 C65.1,124.1 63.9,124.8 62.6,125.2 C61.3,125.5 60,125.5 58.8,125 C57.4,124.5 56.2,123.7 55.1,122.7 C53.4,121.3 52.4,119.3 52.2,117.2 C52.1,115.2 52.8,113.2 54.3,111.8 L63.1,102.6 L66.1,105.5 L57.8,114.3 C56.9,115.1 56.3,116.1 56.1,117.3 C56.2,118.4 56.7,119.5 57.6,120.2 C58.3,121 59.4,121.5 60.5,121.5 C61.7,121.2 62.7,120.6 63.5,119.7 L71.8,111 L74.8,113.9 Z" id="Path" fill="#FFFFFF"></path>
                <polygon id="Path" fill="#FFFFFF" points="66.2 131.9 78.1 116.1 81.4 118.6 69.6 134.4"></polygon>
                <polygon id="Path" fill="#FFFFFF" points="74.6 138 84.8 121.1 88.4 123.3 80 137.2 86.9 141.4 85.1 144.3"></polygon>
                <path d="M108.7,143.7 C107.5,146.7 105.7,148.7 103.3,149.6 C100.9,150.5 98.1,150.2 94.9,148.9 L89.7,146.8 L97.3,128.5 L103,130.9 C105.6,131.8 107.8,133.6 109,136.1 C110,138.6 109.9,141.3 108.7,143.7 Z M104.7,142.2 C106.3,138.3 105.4,135.6 101.9,134.1 L99.9,133.3 L94.9,145.2 L96.6,145.9 C100.3,147.4 103,146.2 104.7,142.2 Z" id="Shape" fill="#FFFFFF"></path>
            </g>
            <g id="loop-code" transform="translate(91.000000, 90.000000)">
                <path d="M25.1,173.4 C11.6,173.4 0.6,162.4 0.6,148.9 C0.6,67.3 67,0.8 148.7,0.8 C162.2,0.8 173.2,11.8 173.2,25.3 C173.2,38.8 162.2,49.8 148.7,49.8 C94,49.9 49.7,94.2 49.6,148.9 C49.6,162.4 38.6,173.4 25.1,173.4 Z" id="Path" fill="#35AFA0"></path>
                <path d="M30.7,97.6 C30.1,98.9 30.2,100.5 31,101.7 C31.9,103.2 33.4,104.2 35,104.8 C39.1,106.5 41.8,105.8 43,102.8 C43.6,101.2 44,99.4 44,97.7 L47.3,99.1 C47.3,101 46.9,102.8 46.1,104.5 C45.3,106.8 43.5,108.7 41.2,109.6 C39,110.3 36.4,110 33.4,108.8 C31.7,108.1 30.1,107 28.8,105.7 C27.7,104.5 27,102.9 26.8,101.3 C26.5,99.6 26.8,97.9 27.5,96.3 C28.3,94.5 29.5,92.8 31,91.5 L33.6,94.1 C33,94.6 32.5,95.2 31.9,95.8 C31.4,96.4 31,97 30.7,97.6 Z" id="Path" fill="#FFFFFF"></path>
                <path d="M50.7,75.8 C53.4,77.6 55.1,79.6 55.7,81.9 C56.3,84.4 55.7,87.1 54.2,89.2 C52.6,91.8 50.6,93.3 48.3,93.7 C46,94.1 43.3,93.4 40.6,91.7 C37.9,90 36.1,87.9 35.5,85.6 C34.9,83.3 35.4,80.9 37.1,78.3 C38.8,75.7 40.7,74.2 43,73.8 C45.3,73.4 47.9,74.1 50.7,75.8 Z M42.9,88 C44.3,89 46,89.6 47.8,89.6 C49.3,89.5 50.6,88.6 51.3,87.3 C53,84.5 52.1,81.9 48.3,79.5 C44.5,77.1 41.8,77.4 40,80.2 C39.1,81.4 38.9,82.9 39.4,84.3 C40.2,85.9 41.4,87.1 42.9,88 Z" id="Shape" fill="#FFFFFF"></path>
                <path d="M64.9,59.8 C67,61.6 68.3,64.1 68.5,66.9 C68.5,69.4 67.3,72 64.9,74.5 L61.1,78.6 L46.6,65.2 L50.8,60.7 C53,58.3 55.3,57 57.8,56.9 C60.3,56.8 62.6,57.7 64.9,59.8 Z M62,63 C58.9,60.2 56,60.1 53.5,62.8 L52,64.5 L61.4,73.2 L62.7,71.9 C65.4,68.9 65.2,66 62,63 Z" id="Shape" fill="#FFFFFF"></path>
                <polygon id="Path" fill="#FFFFFF" points="83.8 57.4 74.9 64.5 62.6 49 71.5 41.9 73.6 44.6 68 49.1 70.7 52.5 76 48.3 78.1 51 72.9 55.2 76 59.2 81.6 54.7"></polygon>
            </g>
            <path d="M239.7,90.8 C226.2,90.8 215.2,101.8 215.2,115.3 C215.2,128.8 226.2,139.8 239.7,139.8 C251.4,139.8 263.1,141.4 274.4,144.7 L285,96.8 C270.2,92.9 255,90.9 239.7,90.8 Z" id="loop-plan-bottom" fill="#46C6B3"></path>
        </g>
    </g>
</svg>