<?xml version="1.0" encoding="utf-8"?>
<svg viewBox="0 0 500 500" xmlns="http://www.w3.org/2000/svg">
  <desc>Created with Sketch.</desc>
  <g class="st0" transform="matrix(1, 0, 0, 1, 122.697866, 201.262182)"/>
  <path class="st1" d="M26.2,0.5c-2.2,2-5.1,3.2-8.2,3.2c-3.2,0-6-1.2-8.2-3.2C4,3.6,0,9.6,0,16.6V36h36V16.5C36,9.5,32,3.5,26.2,0.5z M24.5,24.7h-6.2H20L18,26.7l0-2.1l0,0l0,2.1l-2.1-2.1h2.5H11v0c-4.6-0.2-8.3-4-8.3-8.6c0-4.8,3.9-8.6,8.6-8.6c2.6,0,5,1.2,6.5,3 c1.6-1.8,3.9-3,6.5-3c4.8,0,8.6,3.9,8.6,8.6C33.1,20.8,29.3,24.7,24.5,24.7z" transform="matrix(1, 0, 0, 1, 122.697866, 201.262182)" style="fill: rgb(119, 83, 223);"/>
  <path class="st1" d="M14.7,19.3h-3.3c-1.7,0-3-1.4-3-3V16c0-1.7,1.4-3,3-3h0.3c1.7,0,3,1.4,3,3V19.3z" transform="matrix(1, 0, 0, 1, 122.697866, 201.262182)" style="fill: rgb(119, 83, 223);"/>
  <path class="st1" d="M21.3,19.3h3.3c1.7,0,3-1.4,3-3V16c0-1.7-1.4-3-3-3h-0.3c-1.7,0-3,1.4-3,3V19.3z" transform="matrix(1, 0, 0, 1, 122.697866, 201.262182)" style="fill: rgb(119, 83, 223);"/>
</svg>
