<?xml version="1.0" encoding="utf-8"?>
<!-- Generator: Adobe Illustrator 24.1.0, SVG Export Plug-In . SVG Version: 6.00 Build 0)  -->
<svg version="1.1" id="Layer_1" xmlns="http://www.w3.org/2000/svg" xmlns:xlink="http://www.w3.org/1999/xlink" x="0px" y="0px"
	 viewBox="0 0 144 37" style="enable-background:new 0 0 144 37;" xml:space="preserve">
<style type="text/css">
	.st0{enable-background:new    ;}
	.st1{fill:#7753DF;}
</style>
<desc>Created with Sketch.</desc>
<g class="st0">
	<path class="st1" d="M48,11.3h3.9v15.3h9.3V30H48V11.3z"/>
	<path class="st1" d="M78.7,14.6h-9.9v4h9.1v3.2h-9.1v4.8h10.4V30H65V11.3h13.7V14.6z"/>
	<path class="st1" d="M94.1,11.7c1.3,0.4,2.4,1.2,3.2,2.4c0.7,0.9,1.1,1.9,1.3,3s0.4,2.1,0.4,3.1c0,2.5-0.5,4.6-1.5,6.3
		c-1.4,2.3-3.4,3.5-6.3,3.5h-8.1V11.3h8.1C92.4,11.3,93.4,11.4,94.1,11.7z M87,14.5v12.2h3.6c1.8,0,3.1-0.9,3.9-2.7
		c0.4-1,0.6-2.2,0.6-3.6c0-1.9-0.3-3.4-0.9-4.4c-0.6-1-1.8-1.5-3.6-1.5H87z"/>
	<path class="st1" d="M115.5,17.1c-0.3-1.3-1-2.2-2.2-2.7c-0.6-0.3-1.4-0.4-2.1-0.4c-1.5,0-2.7,0.6-3.7,1.7c-1,1.1-1.5,2.8-1.5,5.1
		c0,2.3,0.5,3.9,1.6,4.9c1,1,2.2,1.4,3.6,1.4c1.3,0,2.4-0.4,3.2-1.1s1.4-1.7,1.5-3h-4.3V20h7.8v10h-2.6l-0.4-2.3
		c-0.8,0.9-1.4,1.5-2,1.9c-1,0.6-2.3,0.9-3.8,0.9c-2.5,0-4.5-0.9-6.1-2.6c-1.7-1.7-2.5-4.1-2.5-7.1c0-3,0.8-5.5,2.5-7.3
		s3.9-2.7,6.6-2.7c2.4,0,4.3,0.6,5.7,1.8c1.4,1.2,2.3,2.7,2.5,4.5H115.5z"/>
	<path class="st1" d="M138,14.6h-9.9v4h9.1v3.2h-9.1v4.8h10.4V30h-14.2V11.3H138V14.6z"/>
</g>
<path class="st1" d="M26.2,0.5c-2.2,2-5.1,3.2-8.2,3.2c-3.2,0-6-1.2-8.2-3.2C4,3.6,0,9.6,0,16.6V36h36V16.5C36,9.5,32,3.5,26.2,0.5z
	 M24.5,24.7h-6.2H20L18,26.7l0-2.1l0,0l0,2.1l-2.1-2.1h2.5H11v0c-4.6-0.2-8.3-4-8.3-8.6c0-4.8,3.9-8.6,8.6-8.6c2.6,0,5,1.2,6.5,3
	c1.6-1.8,3.9-3,6.5-3c4.8,0,8.6,3.9,8.6,8.6C33.1,20.8,29.3,24.7,24.5,24.7z"/>
<path class="st1" d="M14.7,19.3h-3.3c-1.7,0-3-1.4-3-3V16c0-1.7,1.4-3,3-3h0.3c1.7,0,3,1.4,3,3V19.3z"/>
<path class="st1" d="M21.3,19.3h3.3c1.7,0,3-1.4,3-3V16c0-1.7-1.4-3-3-3h-0.3c-1.7,0-3,1.4-3,3V19.3z"/>
</svg>
