<?xml version="1.0" encoding="UTF-8"?>
<svg width="36px" height="36px" viewBox="0 0 36 36" version="1.1" xmlns="http://www.w3.org/2000/svg" xmlns:xlink="http://www.w3.org/1999/xlink">
    <!-- Generator: Sketch 64 (93537) - https://sketch.com -->
    <title>logo_pure</title>
    <desc>Created with Sketch.</desc>
    <g id="Page-1" stroke="none" stroke-width="1" fill="none" fill-rule="evenodd">
        <g id="logo_pure" fill="#7753DF" fill-rule="nonzero">
            <path d="M26.2,0.5 C24,2.5 21.1,3.7 18,3.7 C14.8,3.7 12,2.5 9.8,0.5 C4,3.6 0,9.6 0,16.6 L0,36 L36,36 L36,16.5 C36,9.5 32,3.5 26.2,0.5 Z M24.5,24.7 L18.3,24.7 L20,24.7 L18,26.7 L18,24.6 L18,24.6 L18,26.7 L15.9,24.6 L18.4,24.6 L11,24.6 L11,24.6 C6.4,24.4 2.7,20.6 2.7,16 C2.7,11.2 6.6,7.4 11.3,7.4 C13.9,7.4 16.3,8.6 17.8,10.4 C19.4,8.6 21.7,7.4 24.3,7.4 C29.1,7.4 32.9,11.3 32.9,16 C33.1,20.8 29.3,24.7 24.5,24.7 Z" id="Shape"></path>
            <path d="M14.7,19.3 L11.4,19.3 C9.7,19.3 8.4,17.9 8.4,16.3 L8.4,16 C8.4,14.3 9.8,13 11.4,13 L11.7,13 C13.4,13 14.7,14.4 14.7,16 L14.7,19.3 Z" id="Path"></path>
            <path d="M21.3,19.3 L24.6,19.3 C26.3,19.3 27.6,17.9 27.6,16.3 L27.6,16 C27.6,14.3 26.2,13 24.6,13 L24.3,13 C22.6,13 21.3,14.4 21.3,16 L21.3,19.3 Z" id="Path"></path>
        </g>
    </g>
</svg>